<svg xmlns="http://www.w3.org/2000/svg" viewBox="0 0 100 100" width="100" height="100">
  <rect width="100" height="100" rx="18" fill="#4A90D9"/>
  <!-- Brain network nodes -->
  <circle cx="35" cy="30" r="6" fill="white"/>
  <circle cx="62" cy="25" r="5" fill="white"/>
  <circle cx="28" cy="55" r="5" fill="white"/>
  <circle cx="50" cy="50" r="7" fill="white"/>
  <circle cx="72" cy="52" r="5" fill="white"/>
  <circle cx="38" cy="72" r="5" fill="white"/>
  <circle cx="63" cy="70" r="6" fill="white"/>
  <!-- Network connections -->
  <line x1="35" y1="30" x2="62" y2="25" stroke="white" stroke-width="2.5" opacity="0.6"/>
  <line x1="35" y1="30" x2="50" y2="50" stroke="white" stroke-width="2.5" opacity="0.6"/>
  <line x1="62" y1="25" x2="50" y2="50" stroke="white" stroke-width="2.5" opacity="0.6"/>
  <line x1="62" y1="25" x2="72" y2="52" stroke="white" stroke-width="2.5" opacity="0.6"/>
  <line x1="28" y1="55" x2="50" y2="50" stroke="white" stroke-width="2.5" opacity="0.6"/>
  <line x1="50" y1="50" x2="72" y2="52" stroke="white" stroke-width="2.5" opacity="0.6"/>
  <line x1="50" y1="50" x2="38" y2="72" stroke="white" stroke-width="2.5" opacity="0.6"/>
  <line x1="50" y1="50" x2="63" y2="70" stroke="white" stroke-width="2.5" opacity="0.6"/>
  <line x1="38" y1="72" x2="63" y2="70" stroke="white" stroke-width="2.5" opacity="0.6"/>
  <line x1="28" y1="55" x2="38" y2="72" stroke="white" stroke-width="2.5" opacity="0.6"/>
  <line x1="72" y1="52" x2="63" y2="70" stroke="white" stroke-width="2.5" opacity="0.6"/>
</svg>
